<?xml version="1.0" encoding="utf-8"?>
<!-- Generator: Adobe Illustrator 23.0.1, SVG Export Plug-In . SVG Version: 6.00 Build 0)  -->
<svg version="1.1" xmlns="http://www.w3.org/2000/svg" xmlns:xlink="http://www.w3.org/1999/xlink" x="0px" y="0px"
	 viewBox="0 0 163.89 59.57" style="enable-background:new 0 0 163.89 59.57;" xml:space="preserve">
<style type="text/css">
	.st0{fill:#FFFFFF;}
	.st1{fill:none;stroke:#000000;stroke-miterlimit:10;}
	.st2{fill:none;stroke:#000000;stroke-width:0.1;stroke-miterlimit:10;}
	.st3{fill:none;stroke:#58595B;stroke-width:0.25;stroke-miterlimit:10;}
</style>
<g id="Layer_1">
</g>
<g id="Layer_2">
	<g>
		<g>
			<g>
				<path d="M13.69,22.62h8.96c2.45,0,4.43,0.71,5.64,1.92c0.9,0.9,1.4,2.05,1.4,3.41v0.06c0,2.95-1.92,4.43-3.69,5.15
					c2.6,0.68,4.9,2.17,4.9,5.18v0.06c0,3.63-3.1,5.92-7.78,5.92h-9.43V22.62z M22.47,32.63c3.26,0,5.58-1.58,5.58-4.47v-0.06
					c0-2.39-1.95-4-5.43-4H15.3v8.53H22.47z M23.18,42.84c3.72,0,6.08-1.71,6.08-4.43v-0.06c0-2.67-2.33-4.22-6.61-4.22H15.3v8.71
					H23.18z"/>
			</g>
			<g>
				<path d="M47.24,22.62h9.12c2.67,0,4.81,0.84,6.11,2.14c1.02,1.02,1.64,2.48,1.64,4.03v0.06c0,3.63-2.7,5.71-6.36,6.2l7.16,9.27
					h-2.05l-6.92-8.99H55.9h-7.04v8.99h-1.61V22.62z M56.18,33.88c3.63,0,6.33-1.83,6.33-4.96v-0.06c0-2.92-2.29-4.74-6.23-4.74
					h-7.41v9.77H56.18z"/>
			</g>
			<g>
				<path d="M81.04,22.62h1.61v21.71h-1.61V22.62z"/>
			</g>
			<g>
				<path d="M131.69,38.26v-0.09c0-4.48,4.06-6.92,9.52-6.92c2.99,0,5.59,0.51,7.69,1.2V31c0-4.87-2.9-7.26-7.69-7.26
					c-2.65,0-4.87,0.73-7,1.79l-0.51-1.2c2.39-1.15,4.74-1.88,7.6-1.88c2.95,0,5.25,0.77,6.83,2.35c1.37,1.41,2.13,3.46,2.13,6.11
					v13.41h-1.37v-4.48c-1.11,2.35-4.1,5-9.05,5C135.7,44.84,131.69,42.62,131.69,38.26z M148.94,36.38v-2.65
					c-2.09-0.68-4.57-1.2-7.77-1.2c-4.74,0-8.03,2.01-8.03,5.55v0.09c0,3.54,3.2,5.38,6.79,5.38
					C145.14,43.56,148.94,40.23,148.94,36.38z"/>
			</g>
		</g>
		<g>
			<path d="M99.14,37.15l15.72-20.68H99.66v-0.62h16.16v0.4L100.1,36.93h15.63v0.62H99.14V37.15z"/>
		</g>
		<g>
			<path d="M99.14,50.7l15.72-20.68H99.66v-0.62h16.16v0.4L100.1,50.48h15.63v0.62H99.14V50.7z"/>
		</g>
		<g>
			<g>
				<path d="M77.36,29.55h-0.01c-1.04,0-1.85-0.74-1.85-1.79c0-1.22,0.9-1.78,1.94-1.78c0.08,0,0.17,0,0.26,0.01v2.37
					c0.39-0.1,0.58-0.38,0.58-0.77c0-0.3-0.11-0.53-0.36-0.79l0.57-0.69c0.43,0.34,0.72,0.83,0.72,1.53
					C79.2,28.76,78.45,29.55,77.36,29.55z M77.05,27.14c-0.39,0.05-0.64,0.28-0.64,0.62c0,0.33,0.25,0.55,0.64,0.62V27.14z"/>
			</g>
			<g>
				<path d="M78.66,25.7l-0.75-0.47c0.27-0.41,0.41-0.85,0.41-1.21c0-0.22-0.07-0.32-0.19-0.32h-0.01c-0.14,0-0.2,0.2-0.31,0.58
					c-0.18,0.7-0.42,1.26-1.13,1.26h-0.01c-0.75,0-1.17-0.6-1.17-1.42c0-0.52,0.15-1.06,0.41-1.46l0.79,0.43
					c-0.21,0.37-0.33,0.77-0.33,1.05c0,0.19,0.07,0.29,0.18,0.29h0.01c0.14,0,0.2-0.21,0.31-0.58c0.2-0.7,0.44-1.26,1.13-1.26h0.01
					c0.78,0,1.19,0.58,1.19,1.45C79.19,24.63,79.01,25.22,78.66,25.7z"/>
			</g>
			<g>
				<path d="M78.01,21.92h-1.45v0.42h-1v-0.42h-0.9v-1.24h0.9v-0.83h1v0.83h1.21c0.25,0,0.35-0.11,0.35-0.34
					c0-0.16-0.05-0.32-0.12-0.47h0.97c0.12,0.22,0.21,0.52,0.21,0.87C79.19,21.48,78.86,21.92,78.01,21.92z"/>
			</g>
			<g>
				<path d="M74.05,17.38l0.37-1.15l0.83,0.97v0.87L74.05,17.38z M77.88,19.34h-2.31V18.1h1.92c0.39,0,0.6-0.2,0.6-0.5
					c0-0.3-0.21-0.52-0.6-0.52h-1.92v-1.24h3.55v1.24h-0.49c0.29,0.23,0.57,0.56,0.57,1.06C79.19,18.88,78.69,19.34,77.88,19.34z"/>
			</g>
			<g>
				<path d="M77.36,15.29h-0.01c-1.15,0-1.85-0.73-1.85-1.57c0-0.54,0.24-0.85,0.51-1.08h-1.67V11.4h4.78v1.25h-0.47
					c0.29,0.24,0.55,0.54,0.55,1.07C79.19,14.57,78.49,15.29,77.36,15.29z M77.34,12.62h-0.01c-0.47,0-0.81,0.32-0.81,0.73
					c0,0.4,0.33,0.73,0.81,0.73h0.01c0.47,0,0.81-0.33,0.81-0.73C78.15,12.94,77.82,12.62,77.34,12.62z"/>
			</g>
			<g>
				<path d="M77.36,8.53h-0.01c-1.01,0-1.85-0.83-1.85-1.96s0.83-1.95,1.84-1.95h0.01c1.01,0,1.85,0.83,1.85,1.97
					C79.2,7.71,78.37,8.53,77.36,8.53z M77.36,5.82h-0.01c-0.44,0-0.81,0.32-0.81,0.76c0,0.45,0.36,0.74,0.79,0.74h0.01
					c0.43,0,0.8-0.31,0.8-0.75C78.14,6.12,77.78,5.82,77.36,5.82z"/>
			</g>
		</g>
		<g>
			<path d="M77.9,8.91v1.24h-3.55V8.91H77.9z M79.13,8.89v1.29h-0.92V8.89H79.13z"/>
		</g>
	</g>
</g>
</svg>
